<?xml version="1.0" standalone="no"?>
<!DOCTYPE svg PUBLIC "-//W3C//DTD SVG 20010904//EN"
 "http://www.w3.org/TR/2001/REC-SVG-20010904/DTD/svg10.dtd">
<svg version="1.0" xmlns="http://www.w3.org/2000/svg"
 width="512.000000pt" height="512.000000pt" viewBox="0 0 512.000000 512.000000"
 preserveAspectRatio="xMidYMid meet">
<metadata>
Created by potrace 1.11, written by Peter Selinger 2001-2013
</metadata>
<g transform="translate(0.000000,512.000000) scale(0.100000,-0.100000)"
fill="#000000" stroke="none">
<path d="M2161 5084 c-31 -27 -43 -45 -48 -77 -4 -24 -17 -52 -35 -70 -33 -35
-32 -31 -11 -53 16 -16 16 -18 -5 -34 -23 -19 -29 -59 -11 -77 10 -10 18 -62
22 -138 2 -44 -14 -278 -19 -287 -7 -12 -7 -427 0 -483 10 -79 24 -162 47
-280 11 -60 21 -115 22 -121 0 -5 -16 -45 -36 -86 -71 -151 -118 -270 -153
-391 -34 -117 -82 -314 -89 -367 -14 -105 -18 -126 -20 -130 -4 -6 -8 -44 -26
-250 -6 -68 -12 -127 -14 -131 -2 -3 -5 -35 -6 -72 -1 -36 -5 -71 -9 -78 -5
-8 -38 -12 -98 -12 -50 1 -117 -5 -149 -13 -137 -31 -289 -117 -368 -207 -41
-45 -95 -132 -101 -162 -1 -5 -12 -31 -23 -57 -12 -25 -23 -60 -25 -76 -2 -16
-7 -35 -12 -43 -29 -48 -34 -224 -9 -344 10 -44 19 -87 20 -95 2 -8 4 -15 5
-15 1 0 3 -11 6 -25 11 -61 157 -325 199 -360 8 -7 15 -23 15 -36 0 -14 5 -23
13 -21 6 1 11 -4 10 -11 -2 -6 1 -12 5 -12 17 0 33 -51 22 -65 -7 -8 -7 -16
-2 -19 6 -3 12 4 15 15 3 12 10 18 17 14 6 -4 9 -14 6 -22 -5 -11 -2 -13 10
-9 12 5 15 2 10 -9 -3 -9 -2 -13 4 -10 6 3 10 1 10 -5 0 -6 5 -8 10 -5 6 3 10
-1 10 -9 0 -9 5 -15 12 -13 7 1 13 -4 14 -10 1 -7 2 -16 3 -20 0 -4 8 2 16 13
8 10 15 15 14 9 -3 -24 2 -35 17 -35 14 0 15 2 3 18 -13 15 -12 16 4 3 9 -7
17 -21 17 -30 0 -13 2 -14 9 -2 8 12 12 11 27 -3 10 -10 19 -13 23 -8 7 12 61
4 61 -8 0 -5 12 -7 27 -5 35 4 55 -4 46 -19 -5 -8 -3 -8 8 0 8 7 23 8 34 4 11
-4 26 -5 33 -3 6 3 12 1 12 -4 0 -5 12 -8 28 -6 15 1 47 5 72 7 69 8 149 15
209 20 29 2 57 9 61 15 4 7 18 13 31 15 13 1 34 8 45 14 12 6 24 8 28 5 3 -3
6 0 6 7 0 7 3 10 7 7 3 -4 15 1 26 10 15 13 18 14 12 3 -5 -8 6 0 23 19 18 18
29 38 26 45 -3 6 2 2 10 -8 9 -11 16 -16 16 -10 0 19 -16 33 -43 38 -16 3 -25
1 -22 -5 4 -5 11 -6 17 -3 7 4 8 2 4 -5 -10 -16 -39 7 -32 24 3 9 -3 11 -17 8
-18 -4 -19 -3 -7 6 9 7 10 11 3 11 -6 0 -15 -4 -18 -10 -4 -6 -13 -5 -24 2
-17 10 -13 16 38 58 31 26 64 56 73 66 9 11 26 29 38 42 11 12 20 24 20 27 0
2 16 29 35 59 19 29 31 56 28 60 -4 3 -2 6 4 6 5 0 15 -23 21 -50 7 -28 32
-93 57 -144 37 -75 62 -110 128 -178 111 -113 182 -174 198 -170 11 3 12 2 1
-6 -7 -5 -12 -13 -11 -18 5 -28 -25 -53 -56 -46 -5 1 1 -6 15 -17 14 -11 27
-18 29 -15 2 2 12 -3 21 -11 15 -14 18 -14 30 0 7 9 9 19 5 23 -4 4 -10 1 -12
-5 -3 -7 -9 -13 -14 -13 -5 0 -4 8 2 18 18 29 38 23 34 -9 -2 -16 0 -31 6 -34
5 -4 8 -1 7 6 -2 6 3 14 11 17 9 3 11 0 6 -8 -6 -10 -3 -12 10 -6 16 6 16 4 4
-11 -10 -12 -10 -15 -1 -9 7 4 19 2 27 -4 8 -7 15 -9 15 -4 0 5 5 2 10 -6 9
-13 10 -13 10 0 0 12 2 12 9 2 4 -7 21 -14 37 -16 16 -1 34 -5 39 -8 6 -3 29
-5 51 -5 24 1 40 -2 38 -8 -2 -5 9 -10 26 -10 16 0 30 3 30 8 0 4 5 7 11 7 5
0 8 -3 5 -8 -6 -10 225 -9 241 1 6 4 14 3 18 -3 4 -6 10 -8 15 -5 5 3 36 8 69
10 34 3 72 10 86 15 17 7 25 6 25 -1 0 -8 4 -8 14 0 8 7 31 13 50 14 20 1 36
5 36 10 0 4 7 7 15 7 8 0 34 9 58 19 23 11 52 22 65 26 12 4 20 11 17 16 -4 5
-1 9 5 9 21 0 67 45 62 60 -3 8 -1 12 3 8 9 -9 34 14 29 27 -3 6 4 20 14 31
15 15 16 22 6 31 -6 7 -15 9 -18 6 -3 -4 -6 3 -6 15 0 11 -5 24 -11 28 -8 4
-9 -1 -4 -17 7 -21 6 -22 -9 -7 -9 9 -16 20 -16 25 1 17 68 112 97 137 27 23
31 33 38 108 14 136 10 306 -8 373 -9 33 -18 72 -21 87 -2 14 -18 52 -35 85
-17 32 -31 63 -31 70 0 16 -75 148 -117 205 -39 55 -195 188 -253 218 -21 11
-42 25 -46 31 -4 8 -3 9 4 5 7 -4 10 -2 7 7 -8 18 -55 45 -85 47 -42 4 -61 0
-56 -9 4 -5 -9 -6 -29 -1 -44 10 -198 5 -222 -8 -10 -5 -24 -7 -32 -4 -9 3
-11 0 -6 -8 5 -9 4 -11 -3 -6 -7 4 -33 -3 -59 -15 -27 -12 -52 -23 -58 -24
-21 -3 -85 -37 -147 -77 -14 -10 -30 -18 -35 -18 -9 0 -79 142 -126 250 -8 19
-24 55 -35 80 -79 179 -300 750 -382 987 -33 95 -111 365 -125 433 -2 8 -10
44 -20 78 l-16 64 47 76 c95 155 171 250 310 391 135 136 144 143 173 136 27
-6 32 -3 42 19 9 19 20 26 39 26 19 0 30 7 38 25 11 23 31 31 69 26 7 -1 22 3
34 10 16 8 23 8 29 0 4 -8 22 9 49 44 l42 55 -25 78 c-42 130 -48 142 -73 142
-12 0 -28 -8 -35 -18 -19 -27 -34 -34 -85 -39 -46 -5 -77 -28 -128 -97 -11
-15 -37 -45 -57 -66 -22 -23 -38 -49 -38 -63 0 -22 -17 -49 -65 -106 -160
-189 -292 -359 -347 -447 l-43 -68 -7 41 c-3 22 -9 64 -13 94 -3 30 -12 97
-18 149 -20 153 -9 384 28 574 14 68 75 222 95 236 13 9 31 50 25 60 -3 5 -8
27 -11 49 -5 32 -3 41 9 41 8 0 20 13 25 29 5 15 22 40 36 54 23 23 24 29 15
59 -6 18 -16 44 -23 58 -15 27 -30 81 -28 93 1 4 -13 8 -30 8 -18 1 -45 3 -59
4 -19 3 -39 -7 -68 -31z m37 -1919 c50 -166 214 -644 263 -765 17 -41 37 -91
45 -110 106 -274 193 -502 203 -530 7 -19 35 -92 61 -162 l48 -127 -77 -79
c-43 -43 -85 -90 -92 -104 -8 -14 -27 -49 -42 -78 -31 -57 -41 -57 -44 -2 -4
111 -14 193 -27 242 -9 30 -16 70 -16 88 0 21 -8 41 -24 57 -13 13 -38 44 -56
69 -26 35 -46 50 -96 70 -34 14 -101 47 -148 74 -77 44 -237 106 -298 115 -21
4 -23 10 -28 73 -8 101 2 382 15 434 2 8 6 36 9 61 8 63 43 250 56 302 47 180
91 306 153 437 l50 105 9 -40 c5 -22 22 -80 36 -130z m902 -1539 c0 -8 -10
-32 -22 -53 -17 -28 -24 -33 -26 -20 -2 9 7 31 19 49 13 17 17 28 9 23 -9 -5
-11 -4 -6 3 10 17 26 15 26 -2z"/>
<path d="M2096 5023 c-6 -14 -5 -15 5 -6 7 7 10 15 7 18 -3 3 -9 -2 -12 -12z"/>
<path d="M1256 423 c-6 -14 -5 -15 5 -6 7 7 10 15 7 18 -3 3 -9 -2 -12 -12z"/>
<path d="M2730 148 c0 -7 9 -19 20 -26 17 -10 20 -10 20 3 0 8 -9 19 -20 25
-15 8 -20 8 -20 -2z"/>
<path d="M2780 80 c-17 -5 -19 -8 -7 -9 9 -1 20 -1 23 0 4 0 10 -4 13 -10 8
-13 53 -2 48 12 -4 14 -45 17 -77 7z"/>
</g>
</svg>
