<?xml version="1.0" standalone="no"?>
<!DOCTYPE svg PUBLIC "-//W3C//DTD SVG 20010904//EN"
 "http://www.w3.org/TR/2001/REC-SVG-20010904/DTD/svg10.dtd">
<svg version="1.0" xmlns="http://www.w3.org/2000/svg"
 width="512.000000pt" height="512.000000pt" viewBox="0 0 512.000000 512.000000"
 preserveAspectRatio="xMidYMid meet">
<metadata>
Created by potrace 1.11, written by Peter Selinger 2001-2013
</metadata>
<g transform="translate(0.000000,512.000000) scale(0.100000,-0.100000)"
fill="#000000" stroke="none">
<path d="M2110 5108 c0 -4 -8 -7 -17 -7 -10 0 -31 -2 -48 -5 -16 -3 -41 -8
-55 -10 -14 -3 -25 -5 -25 -6 0 -1 -7 -3 -15 -5 -8 -2 -28 -6 -45 -10 -16 -4
-40 -6 -52 -6 -13 0 -23 -4 -23 -10 0 -5 -3 -8 -8 -5 -4 2 -27 0 -52 -5 -25
-6 -56 -11 -70 -13 -14 -2 -27 -5 -30 -7 -3 -1 -9 -3 -15 -4 -56 -8 -93 -19
-107 -32 -10 -9 -18 -12 -18 -8 0 4 -9 -2 -19 -14 -11 -12 -23 -23 -28 -23
-13 -1 -268 -169 -271 -179 -2 -5 -10 -9 -18 -9 -8 0 -14 -4 -14 -10 0 -5 -4
-9 -8 -7 -8 2 -112 -72 -172 -122 -34 -28 -37 -31 -100 -80 -71 -56 -120 -99
-120 -105 0 -3 -16 -22 -36 -43 -60 -64 -64 -69 -64 -81 0 -7 -5 -12 -12 -12
-6 0 -9 -3 -6 -6 3 -3 -4 -15 -16 -28 -35 -37 -56 -66 -56 -76 0 -6 -3 -10 -7
-10 -5 0 -23 -23 -42 -50 -19 -28 -38 -50 -43 -50 -4 0 -8 -7 -8 -15 0 -8 -4
-15 -10 -15 -5 0 -10 -6 -10 -14 0 -8 -7 -17 -16 -20 -8 -3 -12 -10 -9 -16 3
-5 1 -10 -5 -10 -6 0 -23 -20 -39 -45 -15 -24 -31 -42 -34 -39 -3 3 -8 -4 -12
-15 -3 -12 -11 -21 -17 -21 -6 0 -9 -3 -5 -6 3 -3 -5 -18 -19 -33 -13 -14 -32
-45 -40 -68 -9 -24 -21 -43 -26 -43 -6 0 -8 -7 -4 -15 3 -8 1 -15 -5 -15 -6 0
-7 -4 -4 -10 3 -5 2 -10 -3 -10 -9 0 -22 -33 -21 -54 1 -5 -4 -12 -10 -15 -8
-5 -76 -141 -86 -171 -1 -3 -12 -27 -25 -55 -13 -27 -23 -53 -22 -57 1 -5 -2
-8 -7 -8 -12 0 -23 -44 -27 -115 -3 -33 -6 -82 -9 -110 -19 -237 -23 -355 -11
-422 10 -58 16 -92 20 -120 2 -16 7 -48 11 -73 12 -63 12 -68 20 -130 4 -30 9
-58 11 -62 2 -3 7 -27 9 -51 3 -25 8 -56 11 -68 2 -13 7 -43 10 -65 2 -23 7
-53 10 -65 2 -13 7 -46 10 -74 3 -27 8 -52 12 -55 4 -3 7 -16 7 -30 -1 -14 17
-70 38 -125 21 -55 40 -107 42 -115 2 -8 4 -17 5 -20 1 -3 2 -8 1 -12 0 -5 4
-8 9 -8 6 0 10 -9 10 -19 0 -11 5 -23 10 -26 6 -4 8 -10 5 -15 -3 -5 -1 -11 5
-15 6 -4 8 -11 5 -16 -4 -5 -1 -9 4 -9 6 0 10 -3 10 -7 -1 -5 0 -11 1 -15 1
-5 3 -11 5 -15 2 -10 14 -41 25 -68 4 -11 20 -50 35 -87 15 -37 35 -75 44 -85
9 -10 28 -36 44 -59 15 -22 36 -50 47 -62 11 -12 20 -24 20 -28 0 -3 10 -19
23 -34 12 -15 33 -43 47 -61 14 -18 31 -38 38 -46 7 -7 10 -13 7 -13 -4 0 5
-15 20 -32 14 -18 32 -42 41 -53 38 -52 67 -85 71 -82 2 3 19 -10 37 -29 18
-19 36 -34 39 -34 4 0 20 -14 35 -30 16 -17 32 -30 36 -30 4 0 17 -10 30 -22
13 -13 40 -36 60 -53 21 -16 44 -36 52 -43 8 -7 14 -11 14 -9 0 3 48 -19 108
-48 59 -29 110 -53 114 -54 4 -1 28 -13 53 -26 25 -14 45 -22 45 -18 0 4 4 3
8 -3 15 -23 165 -85 210 -87 6 0 12 -5 12 -10 0 -5 7 -7 15 -4 8 4 17 2 20 -4
4 -5 12 -9 18 -8 7 1 19 0 27 -3 12 -5 57 -18 110 -33 23 -7 81 -17 86 -15 4
1 10 -3 13 -9 4 -6 21 -11 39 -13 18 -1 32 -6 32 -10 0 -4 14 -8 30 -8 17 0
30 -5 30 -12 0 -6 3 -9 6 -6 3 3 29 -1 57 -9 29 -8 60 -16 69 -17 10 -1 21 -5
24 -9 4 -4 20 -7 36 -7 15 0 28 -4 28 -8 0 -4 8 -9 18 -10 17 -2 26 -4 72 -15
14 -4 53 -8 87 -11 34 -2 67 -7 72 -10 5 -3 11 -1 13 5 3 8 10 9 23 2 11 -6
37 -10 58 -9 20 1 37 -2 37 -7 0 -5 6 -4 13 2 8 6 17 8 21 4 9 -9 155 -12 161
-3 2 4 16 6 30 5 14 -2 25 1 25 6 0 6 3 8 8 5 4 -2 30 0 57 5 28 6 61 12 75
15 14 2 36 7 50 10 36 8 62 13 101 18 19 3 34 5 34 6 0 1 13 4 28 6 16 3 52
15 80 28 29 12 55 23 60 24 4 1 22 9 40 19 17 9 38 18 46 19 8 2 17 8 21 14 4
7 9 10 11 8 6 -5 163 65 171 77 4 5 8 6 8 1 0 -5 7 -2 17 5 9 8 18 13 19 12 2
-2 28 8 58 22 30 14 57 25 59 25 6 0 67 52 104 88 13 12 26 22 29 22 3 0 11 6
18 12 7 7 34 31 61 53 27 22 61 52 77 67 15 15 28 25 28 21 0 -5 30 21 133
113 20 19 37 32 37 30 0 -2 12 6 28 20 70 60 88 74 95 74 5 0 6 4 2 9 -3 5 3
12 14 16 10 3 24 19 31 35 7 17 16 30 20 30 4 0 13 14 20 30 7 16 16 30 21 30
5 0 9 5 9 11 0 14 169 281 184 291 6 4 8 8 4 8 -4 0 33 63 82 139 48 77 86
142 82 145 -3 3 -1 6 4 6 6 0 20 18 33 40 12 22 19 40 15 40 -3 0 -1 7 6 15 7
8 10 15 7 15 -3 0 0 20 7 45 8 25 12 45 10 45 -3 0 0 8 5 18 5 9 11 31 14 47
3 17 13 57 23 90 9 33 17 70 17 83 1 12 5 22 10 22 5 0 7 6 4 14 -3 8 -3 17 1
20 3 4 7 12 8 19 6 35 22 102 24 102 2 0 5 13 16 60 7 33 11 481 4 533 -2 17
-7 32 -10 32 -3 0 -6 17 -8 37 -1 20 -8 43 -15 52 -10 12 -9 13 1 7 11 -6 11
-4 4 10 -6 11 -16 46 -22 79 -7 33 -21 97 -31 142 -10 45 -19 93 -19 107 0 14
-5 28 -10 31 -6 4 -8 10 -5 15 3 5 1 17 -4 27 -24 44 -77 184 -73 196 1 4 -2
7 -8 7 -5 0 -10 9 -10 19 0 11 -5 23 -10 26 -6 4 -8 11 -5 16 4 5 1 9 -5 9 -6
0 -10 6 -9 13 2 12 -1 20 -36 102 -9 22 -18 47 -20 55 -5 26 -134 210 -147
210 -4 0 -8 9 -8 20 0 11 -7 20 -15 20 -8 0 -15 6 -15 13 0 21 -351 387 -370
387 -4 0 -18 10 -32 23 -13 12 -51 45 -83 72 -33 28 -66 57 -75 65 -21 20
-104 78 -110 77 -5 0 -50 20 -245 113 -181 86 -191 90 -203 90 -7 0 -12 4 -12
10 0 5 -3 9 -7 9 -5 -1 -11 0 -15 1 -5 1 -12 3 -16 4 -5 0 -33 12 -63 25 -60
26 -101 43 -139 58 -47 19 -85 35 -100 43 -13 6 -32 11 -90 25 -3 1 -30 5 -60
10 -59 9 -69 11 -72 15 -5 3 -100 20 -138 24 -9 1 -22 6 -30 11 -17 11 -660
14 -660 3z"/>
</g>
</svg>
